<?xml version="1.0" encoding="UTF-8"?>
<svg id="Capa_2" data-name="Capa 2" xmlns="http://www.w3.org/2000/svg" viewBox="0 0 905.15 905.22">
  <defs>
    <style>
      .cls-1 {
        opacity: .97;
      }

      .cls-2 {
        fill: #fff;
        stroke-width: 0px;
      }
    </style>
  </defs>
  <g id="Capa_1-2" data-name="Capa 1">
    <g class="cls-1">
      <path class="cls-2" d="M880.12,600.6c.35-.71.71-1.4.97-2.14.05-.15.14-.29.21-.44,15.83-46.68,23.85-95.61,23.85-145.42,0-29.33-2.82-58.58-8.37-86.92-23.71-122.12-98.06-230.25-203.95-296.68-22.26-14.01-45.89-26.09-70.17-35.91-44.64-18.17-91.76-28.96-139.93-32.07-9.53-.68-19.67-1.02-30.13-1.02C203.03,0,0,203.03,0,452.59c0,66.29,14.01,130.16,41.63,189.83,20.18,43.66,47.16,83.74,80.21,119.11.03.03.06.05.09.08.67.71,1.46,1.32,2.23,1.94.37.29.71.66,1.1.93,0,0,.02.02.03.02,1.06.73,2.19,1.32,3.33,1.83.35.16.7.28,1.05.41.89.35,1.8.62,2.72.84.35.08.69.17,1.04.23,1.24.22,2.49.38,3.75.38h.03s.03,0,.04,0c1.12,0,2.22-.13,3.32-.3.29-.04.58-.1.87-.16,1.09-.22,2.17-.51,3.21-.91.16-.06.32-.14.48-.21.96-.39,1.88-.86,2.78-1.39.21-.13.42-.24.62-.38,1-.64,1.94-1.37,2.83-2.18.05-.05.12-.09.18-.14.1-.09.17-.21.27-.3.82-.79,1.59-1.66,2.29-2.62.11-.14.22-.27.32-.41.03-.04.06-.08.1-.12L559.57,169.92c6.58-9.57,4.15-22.66-5.41-29.24-2.55-1.76-5.37-2.82-8.23-3.33-.66-.27-1.28-.59-1.97-.79-29.57-8.53-60.3-12.86-91.36-12.86-181.36,0-328.89,147.52-328.89,328.85,0,18.65,1.57,37.25,4.66,55.33.03.17.09.32.12.48.08.47.21.93.33,1.4.2.84.41,1.66.71,2.46.15.41.34.79.52,1.19.36.81.74,1.6,1.2,2.35.23.37.48.73.73,1.1.51.74,1.05,1.44,1.66,2.1.29.31.57.62.88.92.71.7,1.46,1.32,2.26,1.91.19.13.33.31.52.44.12.09.27.14.4.23.55.37,1.12.68,1.71.99.46.24.91.46,1.37.67.56.25,1.13.47,1.73.68.54.19,1.1.33,1.65.46s1.1.29,1.67.37c.79.12,1.57.18,2.36.21.35.02.68.1,1.03.1.18,0,.34-.05.53-.05,1.01-.03,2-.13,2.99-.3.38-.06.78-.12,1.15-.21,1.04-.23,2.05-.55,3.05-.95.36-.14.7-.3,1.04-.46.92-.42,1.82-.9,2.68-1.46.14-.09.29-.17.42-.26.93-.63,1.79-1.37,2.62-2.17.22-.21.45-.43.66-.65.78-.81,1.52-1.67,2.18-2.62l.07-.11s.04-.06.06-.09l157.04-228.4c6.58-9.57,4.15-22.66-5.41-29.24-9.56-6.57-22.66-4.15-29.24,5.41l-123.07,179.02c4.88-153.9,131.52-277.61,286.61-277.61,18.6,0,37.06,1.82,55.14,5.34L135.23,712.93c-22.18-26.98-40.82-56.51-55.44-88.16-25.04-54.11-37.74-112.04-37.74-172.18,0-226.38,184.17-410.55,410.55-410.55,9.61,0,18.49.3,27.28.93,43.78,2.82,86.49,12.6,126.97,29.08,22.03,8.9,43.42,19.85,63.6,32.54,96.09,60.29,163.54,158.36,185.05,269.13,5.03,25.72,7.59,52.26,7.59,78.87,0,30.41-3.37,60.41-9.88,89.69l-199.46-290.1c-3.92-5.7-10.4-9.11-17.33-9.11s-13.4,3.41-17.33,9.11L226.41,823.34c-6.58,9.57-4.15,22.66,5.41,29.24,3.64,2.5,7.79,3.7,11.89,3.7,6.7,0,13.27-3.18,17.35-9.11l375.35-545.96,207.63,301.97c.09.13.21.23.31.37.46.63.98,1.21,1.51,1.79.41.46.8.94,1.25,1.35.5.46,1.07.86,1.62,1.28.55.42,1.1.87,1.69,1.22.52.31,1.08.55,1.62.83.71.35,1.4.71,2.13.97.15.05.29.15.44.21.45.15.91.2,1.36.31.71.19,1.43.38,2.16.5.7.11,1.39.14,2.09.19.65.04,1.3.07,1.96.05.71-.03,1.42-.12,2.12-.22.64-.09,1.28-.18,1.91-.33.7-.17,1.37-.4,2.04-.63.61-.21,1.21-.42,1.8-.69.71-.32,1.37-.71,2.03-1.12.39-.23.8-.38,1.18-.64.13-.09.23-.21.37-.31.63-.46,1.21-.98,1.79-1.52.46-.41.94-.8,1.35-1.25.46-.5.86-1.06,1.27-1.62.42-.56.87-1.1,1.23-1.69.35-.52.59-1.07.87-1.62Z"/>
      <path class="cls-2" d="M818.43,710.36c-.04-.66-.1-1.31-.21-1.96-.12-.67-.29-1.32-.47-1.98-.18-.67-.37-1.32-.62-1.97-.22-.6-.51-1.17-.79-1.74-.34-.69-.69-1.36-1.1-2.01-.13-.21-.21-.45-.37-.66l-99.9-145.32c-.29-.42-.64-.74-.96-1.12-.49-.62-.96-1.24-1.53-1.8s-1.18-1.03-1.79-1.51c-.39-.31-.72-.68-1.14-.96-.09-.06-.19-.09-.28-.15-.71-.47-1.46-.84-2.21-1.21-.5-.25-.97-.54-1.48-.76-.68-.28-1.38-.45-2.09-.65-.62-.18-1.21-.41-1.84-.53-.67-.12-1.34-.15-2.02-.21-.66-.06-1.32-.18-1.98-.18-.71,0-1.42.12-2.13.19-.62.06-1.25.08-1.87.2-.65.12-1.29.37-1.94.55-.67.2-1.35.36-2,.62-.52.21-1,.51-1.5.77-.75.37-1.5.74-2.2,1.21-.09.06-.19.09-.28.15-.41.29-.73.64-1.12.95-.62.49-1.24.96-1.81,1.54s-1.04,1.19-1.53,1.8c-.31.38-.67.71-.96,1.12l-155.41,226.03c-6.58,9.57-4.15,22.66,5.41,29.24,3.64,2.5,7.78,3.7,11.89,3.7,6.69,0,13.27-3.19,17.35-9.11l138.08-200.83,73.83,107.39c-19.51,24.03-41.61,45.79-65.9,64.79-65.49,51.34-143.97,81.21-226.95,86.39,0,0-.02,0-.03,0h-.03c-26.25,1.7-53.21.79-79.36-2.62l254.55-370.21c6.58-9.57,4.15-22.66-5.41-29.24-9.56-6.57-22.66-4.15-29.24,5.41l-273.18,397.31c-3.98,5.79-4.8,13.19-2.2,19.71,2.61,6.53,8.29,11.32,15.18,12.77,30.56,6.46,62.08,9.75,93.7,9.75,9.53,0,19.13-.31,28.56-.92h.13c91.5-5.71,178.02-38.65,250.19-95.24,31.1-24.32,58.97-52.72,82.85-84.43.15-.21.24-.43.38-.63.45-.63.83-1.29,1.2-1.96.31-.56.62-1.12.87-1.71.28-.63.49-1.29.7-1.95.21-.65.42-1.29.56-1.96.14-.65.21-1.3.29-1.96.08-.68.16-1.35.18-2.03,0-.72-.05-1.39-.1-2.08Z"/>
    </g>
  </g>
</svg>