<?xml version="1.0" encoding="UTF-8"?>
<svg id="Capa_2" data-name="Capa 2" xmlns="http://www.w3.org/2000/svg" viewBox="0 0 963 941.53">
  <defs>
    <style>
      .cls-1 {
        stroke-width: 0px;
      }

      .cls-1, .cls-2 {
        fill: #000;
      }

      .cls-2 {
        font-family: Helvetica-Bold, Helvetica;
        font-size: 119.5px;
        font-weight: 700;
      }
    </style>
  </defs>
  <g id="Capa_1-2" data-name="Capa 1">
    <g>
      <g>
        <path class="cls-1" d="M825.87,483.76c.28-.57.57-1.13.78-1.73.04-.12.12-.23.17-.35,12.75-37.6,19.21-77.01,19.21-117.13,0-23.62-2.27-47.18-6.74-70.01-19.1-98.36-78.98-185.46-164.27-238.96-17.93-11.28-36.96-21.02-56.52-28.92-35.95-14.63-73.91-23.33-112.71-25.83-7.67-.55-15.84-.82-24.27-.82C280.5,0,116.97,163.53,116.97,364.54c0,53.4,11.28,104.84,33.53,152.9,16.25,35.17,37.99,67.45,64.61,95.94.02.02.05.04.07.06.54.57,1.17,1.06,1.8,1.56.3.24.57.53.88.75,0,0,.01.01.02.01.86.59,1.76,1.06,2.68,1.47.28.13.56.22.85.33.72.28,1.45.5,2.19.68.28.06.55.14.84.19,1,.18,2.01.3,3.02.3h.02s.02,0,.04,0c.9,0,1.79-.1,2.67-.24.24-.04.47-.08.7-.13.88-.18,1.75-.41,2.59-.73.13-.05.26-.12.39-.17.77-.32,1.52-.69,2.24-1.12.17-.1.34-.19.5-.3.81-.52,1.56-1.1,2.28-1.75.04-.04.1-.07.14-.12.08-.07.14-.17.22-.24.66-.64,1.28-1.34,1.84-2.11.09-.12.18-.22.26-.33.02-.04.05-.06.08-.09l326.24-474.52c5.3-7.71,3.34-18.25-4.36-23.55-2.06-1.42-4.32-2.27-6.63-2.68-.53-.22-1.03-.47-1.59-.64-23.81-6.87-48.57-10.36-73.59-10.36-146.08,0-264.91,118.82-264.91,264.88,0,15.02,1.27,30.01,3.75,44.57.02.14.07.26.09.39.06.38.17.75.27,1.13.16.68.33,1.34.57,1.98.12.33.27.64.42.96.29.65.6,1.29.96,1.89.19.3.39.59.59.88.41.6.85,1.16,1.34,1.69.23.25.46.5.71.74.57.56,1.17,1.06,1.82,1.54.15.11.27.25.42.35.1.07.22.12.32.19.45.29.91.55,1.37.8.37.19.73.37,1.11.54.45.2.91.38,1.39.55.44.15.88.27,1.33.37s.88.23,1.34.3c.63.1,1.27.14,1.9.17.28.01.55.08.83.08.14,0,.27-.04.42-.04.81-.02,1.61-.11,2.41-.24.31-.05.63-.1.93-.17.83-.19,1.65-.45,2.46-.76.29-.12.56-.24.84-.37.74-.34,1.47-.73,2.16-1.17.12-.07.23-.14.34-.21.75-.51,1.45-1.11,2.11-1.75.18-.17.36-.35.53-.52.63-.65,1.22-1.34,1.75-2.11l.06-.09s.04-.05.05-.07l126.49-183.97c5.3-7.71,3.34-18.25-4.36-23.55-7.7-5.29-18.25-3.34-23.55,4.36l-99.13,144.19c3.93-123.96,105.94-223.6,230.85-223.6,14.99,0,29.85,1.47,44.42,4.3l-300.04,436.4c-17.86-21.73-32.88-45.52-44.65-71.01-20.17-43.58-30.4-90.24-30.4-138.68,0-182.34,148.34-330.68,330.68-330.68,7.74,0,14.89.24,21.97.75,35.26,2.27,69.66,10.15,102.27,23.42,17.75,7.17,34.97,15.98,51.23,26.21,77.4,48.56,131.72,127.55,149.05,216.77,4.06,20.72,6.11,42.09,6.11,63.53,0,24.49-2.71,48.66-7.96,72.24l-160.66-233.66c-3.16-4.59-8.38-7.34-13.96-7.34s-10.79,2.75-13.96,7.34l-316.28,460.04c-5.3,7.71-3.34,18.25,4.36,23.55,2.93,2.01,6.28,2.98,9.58,2.98,5.39,0,10.69-2.56,13.97-7.34l302.33-439.75,167.24,243.23c.07.11.17.19.25.29.37.51.79.97,1.22,1.44.33.37.65.76,1.01,1.09.4.37.86.69,1.3,1.03.45.34.88.7,1.36.99.42.25.87.45,1.31.67.57.28,1.13.57,1.72.78.12.04.23.12.35.17.36.12.73.16,1.09.25.58.15,1.15.31,1.74.4.56.09,1.12.12,1.68.15.52.03,1.05.06,1.57.04.58-.02,1.14-.1,1.71-.18.52-.07,1.03-.14,1.54-.27.56-.14,1.1-.32,1.65-.51.49-.17.98-.34,1.45-.55.57-.26,1.1-.58,1.63-.9.32-.19.65-.31.95-.52.11-.07.19-.17.29-.25.51-.37.97-.79,1.44-1.22.37-.33.75-.65,1.09-1.01.37-.4.69-.86,1.02-1.3.34-.45.7-.88.99-1.36.28-.42.47-.86.7-1.3Z"/>
        <path class="cls-1" d="M776.18,572.16c-.04-.53-.08-1.06-.17-1.58-.09-.54-.24-1.06-.38-1.6-.14-.54-.29-1.06-.5-1.59-.18-.48-.41-.94-.64-1.4-.27-.55-.55-1.09-.88-1.62-.11-.17-.17-.36-.29-.53l-80.47-117.05c-.23-.34-.52-.6-.77-.91-.4-.5-.78-1-1.23-1.45s-.95-.83-1.44-1.22c-.32-.25-.58-.55-.92-.78-.07-.05-.15-.07-.22-.12-.57-.38-1.17-.68-1.78-.98-.4-.2-.78-.44-1.19-.61-.55-.22-1.11-.36-1.68-.52-.5-.14-.98-.33-1.48-.42-.54-.1-1.08-.12-1.63-.17-.53-.05-1.06-.14-1.6-.14-.58,0-1.14.09-1.72.15-.5.05-1.01.06-1.51.16-.52.1-1.04.29-1.56.45-.54.16-1.09.29-1.61.5-.42.17-.81.41-1.21.62-.6.3-1.21.6-1.78.98-.07.05-.15.07-.22.12-.33.23-.59.52-.9.76-.5.4-1,.78-1.46,1.24s-.83.96-1.23,1.45c-.25.31-.54.58-.77.91l-125.17,182.06c-5.3,7.71-3.34,18.25,4.36,23.55,2.93,2.01,6.27,2.98,9.58,2.98,5.39,0,10.69-2.57,13.97-7.34l111.22-161.76,59.47,86.5c-15.71,19.36-33.51,36.88-53.08,52.19-52.75,41.35-115.96,65.41-182.8,69.58,0,0-.01,0-.02,0h-.02c-21.15,1.37-42.86.63-63.92-2.11l205.03-298.19c5.3-7.71,3.34-18.25-4.36-23.55-7.7-5.29-18.25-3.34-23.55,4.36l-220.04,320.01c-3.21,4.67-3.87,10.62-1.77,15.88,2.1,5.26,6.68,9.12,12.22,10.29,24.61,5.21,50,7.85,75.47,7.85,7.67,0,15.41-.25,23-.74h.11c73.7-4.6,143.39-31.13,201.52-76.72,25.05-19.59,47.5-42.47,66.74-68.01.12-.17.19-.35.31-.51.36-.51.67-1.04.96-1.58.25-.45.5-.91.7-1.37.22-.51.4-1.04.56-1.57.17-.52.34-1.04.45-1.57.12-.52.17-1.05.24-1.57.06-.55.13-1.09.14-1.63,0-.58-.04-1.12-.08-1.68Z"/>
      </g>
      <text class="cls-2" transform="translate(0 884.05)"><tspan x="0" y="0">FoodPawsNexus</tspan></text>
    </g>
  </g>
</svg>